<svg width="200" height="200" fill="#000000" xmlns="http://www.w3.org/2000/svg" xmlns:xlink="http://www.w3.org/1999/xlink" version="1.1" x="0px" y="0px" viewBox="0 0 48 48" style="enable-background:new 0 0 48 48;" xml:space="preserve"><style type="text/css">
	.st0{fill:none;}
</style><g><path d="M24.8,21.3c-0.9-1-2.5-1.2-3.6-0.2l-3.4,3.1c-0.3-0.4-0.8-0.6-1.3-0.6c-0.5,0-1,0.1-1.4,0.5l-3.5,3.1l-0.7-0.8   c-0.4-0.4-1-0.5-1.4-0.1l-4.9,4.4c-0.4,0.4-0.5,1-0.1,1.4l1,1.1l-5.2,4.6c-0.4,0.4-0.4,1-0.1,1.4l6,6.7c0.4,0.4,1,0.5,1.4,0.1   l5.2-4.6l1,1.1c0.4,0.4,1,0.4,1.4,0.1l4.9-4.4c0.4-0.4,0.5-1,0.1-1.4l-0.7-0.8L23,33c0.4-0.3,0.6-0.8,0.6-1.3c0-0.5-0.1-1-0.5-1.3   l3.5-3.1c1.1-0.9,1.2-2.6,0.2-3.6L24.8,21.3z M7.1,43.8l-4.7-5.2l4.4-3.9l4.7,5.2L7.1,43.8z M14.6,40.4c-1.5-1.7,0.4,0.4-8-9l3.4-3   c0.3,0.3,0.5,0.6,7.3,8.2l0,0l0,0l0.7,0.8L14.6,40.4z M25.3,25.8l-3.5,3.1c-0.8,0.7-0.9,1.9-0.2,2.7l-3.5,3.1l-5.3-6l3.4-3.1   c0.7,0.8,1.9,0.9,2.7,0.2l3.5-3.1c0.3-0.2,0.6-0.2,0.8,0l2.1,2.3C25.6,25.2,25.5,25.6,25.3,25.8z"/><path d="M21.6,24.9l-1.1,1c-0.4,0.4-0.5,1-0.1,1.4c0.4,0.4,1,0.5,1.4,0.1l1.1-1c0.4-0.4,0.5-1,0.1-1.4C22.6,24.5,22,24.5,21.6,24.9   z"/><path d="M47.7,10.2l-7.2-8.1c-0.4-0.4-1-0.5-1.4-0.1L34,6.6l-0.4-0.4c-0.4-0.4-1-0.5-1.4-0.1l-9.4,8.4c-0.4,0.4-0.5,1-0.1,1.4   L32,26.3c0.4,0.4,1,0.4,1.4,0.1l9.4-8.4c0.4-0.4,0.5-1,0.1-1.4l-0.4-0.4l5.2-4.6C48.1,11.3,48.1,10.6,47.7,10.2z M32.8,24.3l-8-9   l7.9-7l8,9L32.8,24.3z M41.2,14.7l-5.9-6.6l4.4-3.9l5.9,6.6L41.2,14.7z"/><path d="M31.1,10.9L27.6,14c-0.4,0.4-0.4,1-0.1,1.4l5.5,6.2c0.4,0.4,1,0.5,1.4,0.1l3.5-3.1c0.4-0.4,0.4-1,0.1-1.4L32.5,11   C32.2,10.5,31.5,10.5,31.1,10.9z M33.9,19.5l-4.2-4.7l2-1.8l4.2,4.7L33.9,19.5z"/></g></svg>